<?xml version="1.0" encoding="utf-8"?>
<!-- Generator: Adobe Adobe Illustrator 24.2.0, SVG Export Plug-In . SVG Version: 6.00 Build 0)  -->
<svg version="1.1" id="Layer_1" xmlns="http://www.w3.org/2000/svg" xmlns:xlink="http://www.w3.org/1999/xlink" x="0px" y="0px"
	 width="1920px" height="810px" viewBox="0 0 1920 810" style="enable-background:new 0 0 1920 810;" xml:space="preserve">
<style type="text/css">
	.st0{fill:#121212;}
	.st1{fill:none;stroke:#000000;stroke-width:5.7138;stroke-miterlimit:10;}
	.st2{fill:#FFD561;}
	.st3{fill:#FFD561;stroke:#FFD561;stroke-width:5.7138;stroke-miterlimit:10;}
	.st4{fill:#FFFFFF;stroke:#FFFFFF;stroke-miterlimit:10;}
	.st5{fill:#FFFFFF;stroke:#FFFFFF;stroke-width:5.7138;stroke-miterlimit:10;}
	.st6{fill:#436447;}
	.st7{fill:#436447;stroke:#436447;stroke-width:5.7138;stroke-miterlimit:10;}
	.st8{fill:#FFFFFF;}
	.st9{fill:#FFFFFF;stroke:#FFFFFF;stroke-width:0.2898;stroke-miterlimit:10;}
	.st10{fill:#FFFFFF;stroke:#FFFFFF;stroke-width:1.656;stroke-miterlimit:10;}
</style>
<g>
	<path class="st4" d="M1782.83,492.27c0.4-0.89,6.92-4.01,10.49-5.24c4.92-2.97,11.43-4.89,12.26-8.34
		c1.85-7.65-3.27-10.16-4.66-16.07c1.11-0.81,4.49-1.33,5.85-3.1c1.15-1.49,2.25-4.22,1.64-5.66c-3.55-8.3-21.27-46.42-22.26-50.27
		c-3.53-13.82-2.69-28.41-4.06-43.84c-0.16-14.31-6.99-24.46-14.61-34.2c-0.05,0.08,0.12-0.02-0.02-0.46
		c-1.47-1.68-7.4-8.11-10.98-11.14c-5.99-5.07-11.37-9.56-16.76-14.05c-4.02-3.49-8.04-6.99-12.72-11.06
		c-4.9-4.44-13.37-12.17-13.37-12.17s-0.16-0.07-0.28-0.62c-4-6.09-12.95-20.46-14.98-24.52c-4.03-8.04-11.81-7.07-19.85-7.93
		c-1.77,0.03-2.54,0.12-3.32,0.22c-5.67-0.11-11.34-0.21-18.16-0.33c-4.64,0.06-8.13,0.13-11.62,0.2c-2.45-0.38-4.9-0.77-8.37-1.24
		c-6.34-0.87-9.89-2.19-16.87-2.66c-2.13-0.14-3.34-0.18-4.54-0.22c-1.28-0.2-2.56-0.4-4.09-0.69c-1.83-0.34-3.48-1.31-4.71-2.7
		c-5.62-6.39-6.48-12.96-2.76-19.33c0.52-0.89,1.74-1.06,2.51-0.38c1.8,1.61,3.56,3.22,5.43,4.69c3.1,2.43,6.3,6.58,9.54,6.65
		c12.44,0.28,24.93-1.26,37.39-1.81c-18.49-12.13-38.08-21.48-60.47-26.22c0,16.48-0.44-33.48-0.44-33.48
		c0.04,9.39,7.08,19.62,16.21,22.41c19.16,5.85,38.46,11.25,57.65,16.98c5.65,1.69,9.81,0.39,13.86-4.01
		c9.75-10.58,20.09-20.61,29.84-31.18c3.89-4.22,7.32-9.25,9.41-14.51c3.41-8.55,0.32-18.37-7.29-23.56
		c-5.02-3.43-10.12-6.74-15.3-9.92c-7.95-4.88-11.4-12.18-11.93-21.23c-0.43-7.42,1.87-10.07,9.37-9.48
		c7.76,0.62,15.45,1.98,23.21,2.67c2.38,0.21,5.25-0.08,7.24-1.26c18.84-11.09,46.41,0.46,51.35,21.71
		c4.51,19.4,5.79,38.68-1.45,57.85c-4.1,10.85,0.11,21.31,2.12,31.92c7.79,41.26,31.03,73.68,58.24,104.11
		c7.04,7.87,13.4,15.1,25.13,14.25c8.68-0.63,15.23-4.03,19.56-11.8c2.85-5.11,5.61-10.59,9.72-14.56c2.48-2.4,7.95-5.28,11.33-3.18
		c3.14,1.96,2.82,7.55,2.03,10.78c-1.54,6.32-4.13,12.55-7.25,18.3c-6.51,12-16.56,18.98-30.62,19.58
		c-6.12,0.26-12.22,1.34-18.34,1.52c-5.52,0.16-8.39,3.17-9.27,7.98c-2.56,13.88-8.67,26.16-15.1,38.59
		c-2.72,5.25-2.76,13.23-1.11,19.17c7.95,28.7-1.96,54.42-11.78,80.31c-0.97,2.57-1.77,5.2-2.99,8.3c-0.88,1.01-1.41,1.53-1.94,2.05
		c-19.02-1.7-21.48-0.45-21.17-1.33C1789.07,497.88,1781.82,494.49,1782.83,492.27z"/>
	<g>
		<path class="st4" d="M252.22,458.95H22.42v-4.93c34.52,0,55.23-1.32,62.14-3.96c3.28-1.31,5.59-3.21,6.9-5.69
			c1.31-2.47,1.97-8.49,1.97-18.05v-253.8c0-9.23-0.66-15.16-1.97-17.81c-0.66-1.32-2.8-2.64-6.41-3.96
			c-9.54-3.62-30.41-5.44-62.63-5.44v-4.44h201.69c35.51,0,63.78,9.53,84.82,28.59c16.77,15.13,25.15,30.74,25.15,46.84
			c0,19.73-5.08,34.51-15.23,44.37c-13.44,13.48-38.83,23.01-76.17,28.59c39.33,4.93,68.18,16.28,86.54,34.03
			c15.07,14.47,22.62,33.05,22.62,55.73c0,18.42-8.55,35.68-25.64,51.79C306.46,449.58,281.81,458.95,252.22,458.95z M154.08,287.34
			h45.68c23.89,0,41.57-4.47,53.04-13.41c13.75-10.59,20.63-28.3,20.63-53.14c0-27.81-5.57-47.34-16.7-58.6
			c-11.13-11.25-29.96-16.88-56.48-16.88h-23.57c-6.88,0-11.96,0.5-15.23,1.49c-3.27,0.99-5.32,3.14-6.14,6.46
			c-0.82,3.31-1.23,9.76-1.23,19.36V287.34z M212.49,291.78h-58.41v134.54c0,9.89,0.58,16.17,1.73,18.8
			c1.16,2.63,3.63,4.7,7.42,6.18c3.79,1.49,8.75,2.4,14.85,2.72c6.1,0.33,20.38,0.49,42.82,0.49c23.42,0,40.91-7.09,52.46-21.27
			c10.56-12.86,15.84-30.84,15.84-53.92c0-27.37-6.11-48.47-18.32-63.31C257.69,299.86,238.23,291.78,212.49,291.78z"/>
		<path class="st4" d="M495.83,293.75v132.08c0,9.24,0.49,15.01,1.47,17.31c0.99,2.31,4.1,4.37,9.35,6.19
			c5.25,1.82,11.31,2.89,18.2,3.21c6.89,0.33,19.18,0.49,36.89,0.49c37.38,0,65.66-11.13,84.84-33.4
			c19.19-22.27,31.24-57.98,36.15-107.14h6.41v146.46H368.6v-4.93c29.26,0,48.65-1.81,58.19-5.44c3.28-1.32,5.5-3.05,6.66-5.19
			c1.15-2.14,1.73-7.84,1.73-17.07v-253.3c0-9.55-0.66-15.5-1.97-17.81c-0.66-1.32-2.8-2.64-6.41-3.95
			c-3.62-1.32-11.02-2.64-22.19-3.96c-11.18-1.32-23.18-1.98-36-1.98v-4.44h304.27v123.29h-6.41c0-25.42-6.4-49.68-19.18-72.79
			c-17.04-30.7-41.14-46.05-72.28-46.05c-12.46,0-25,0.08-37.62,0.25c-12.62,0.17-23.85,1.74-33.68,4.72
			c-2.95,1.33-5,3.07-6.15,5.22c-1.15,2.16-1.72,8.03-1.72,17.63v115.7c34,0,55.09-3.45,63.27-10.36
			c12.42-10.52,21.08-38.79,25.99-84.82H591v194.3h-5.92c-4.91-45.04-13.41-72.82-25.5-83.34
			C551.07,297.37,529.82,293.75,495.83,293.75z"/>
		<path class="st4" d="M900.19,458.95H708.36v-4.93c14.79,0,27.45-0.49,37.97-1.48c10.52-0.99,17.75-2.23,21.7-3.71
			c3.95-1.48,6.24-2.88,6.9-4.21c1.31-2.3,1.97-8.41,1.97-18.3v-253.3c0-9.23-0.66-15.16-1.97-17.81c-0.66-1.32-2.8-2.64-6.41-3.96
			c-10.53-3.95-30.57-5.93-60.16-5.93v-4.44h192.33c37.15,0,70.68,13.65,100.6,40.93c34.52,31.24,51.78,71.18,51.78,119.83
			c0,48-15.29,86.63-45.86,115.89C978.27,445.15,942.6,458.95,900.19,458.95z M900.39,454.02c31.33,0,54.18-12.7,68.52-38.09
			c14.35-25.4,21.52-63.48,21.52-114.28c0-48.15-7.26-85.75-21.77-112.8c-15.5-29.02-38.26-43.54-68.28-43.54
			c-15.83,0-27.95,0.25-36.36,0.75c-8.41,0.49-14.35,1.4-17.81,2.72c-3.47,1.32-5.77,3.21-6.93,5.69
			c-1.16,2.47-1.73,8.65-1.73,18.55v253.3c0,9.56,0.57,15.83,1.73,18.79c1.16,2.97,3.38,5.12,6.68,6.43
			c3.3,1.33,10.39,2.07,21.27,2.23C878.12,453.95,889.17,454.02,900.39,454.02z"/>
		<path class="st4" d="M1248.55,348h-95.03l-15.19,43.6c-3.92,10.9-5.88,20.32-5.88,28.24c0,12.22,4.6,20.97,13.81,26.26
			c9.2,5.29,22.19,7.93,38.96,7.93v4.93h-125.26v-4.93c22.68,0,40.27-8.56,52.77-25.68c6.9-9.55,15.78-29.3,26.63-59.27
			l83.34-232.14h9.86l106.52,289.43c4.93,13.51,9.86,21.5,14.79,23.96s19.72,3.7,44.38,3.7v4.93h-181.97v-4.93
			c24.66,0,41.59-0.9,50.79-2.72c9.2-1.82,13.81-5.53,13.81-11.15l-0.99-4.95L1248.55,348z M1246.1,342.57l-45.07-125.56
			l-45.06,125.56H1246.1z"/>
		<path class="st4" d="M1566.35,165.04c19.11-16.77,29.82-26.14,32.12-28.11v107.5l-3.94-1.48c-4.61-28.79-16.61-52.92-36-72.38
			c-19.4-19.46-41.42-29.2-66.08-29.2c-17.1,0-31.89,3.94-44.38,11.82c-15.46,9.52-23.18,23.47-23.18,41.85
			c0,17.73,8.36,32.17,25.09,43.33c14.1,9.52,36.73,17.89,67.89,25.11c40.34,9.85,66.74,19.21,79.2,28.07
			c20.33,14.78,30.5,39.4,30.5,73.86c0,32.5-10.53,57.61-31.56,75.33c-17.75,15.1-39.29,22.65-64.6,22.65
			c-19.4,0-36.74-3.13-52.03-9.37c-15.29-6.24-28.53-16.6-39.7-31.07c-19.73,25.97-30.08,39.45-31.07,40.44V327.29l3.94-0.49
			c6.24,28.28,13.31,50.96,21.2,68.05c6.57,14.47,14.3,26.47,23.18,36c17.42,18.74,42.73,28.11,75.94,28.11
			c15.45,0,29.59-5.09,42.41-15.26c14.79-11.81,22.19-26.58,22.19-44.31c0-21.67-10.01-38.73-30.01-51.21
			c-13.78-8.53-37.79-17.48-72.07-26.83c-34.27-9.35-58.14-18.96-71.57-28.8c-19.68-14.82-29.52-36.38-29.52-64.71
			c0-25.35,8.98-46.84,26.94-64.46c17.96-17.61,39.31-26.43,64.02-26.43c21.09,0,38.39,3.13,51.91,9.37
			C1541.47,148.28,1551.18,154.52,1566.35,165.04z"/>
	</g>
	<g>
		<path class="st4" d="M97.61,591.52v-41.15H52.3v41.15c0,3.08,0.21,5.05,0.64,5.9c0.21,0.43,0.93,0.88,2.15,1.36
			c1.22,0.48,3.47,0.88,6.76,1.2c3.28,0.32,7.15,0.48,11.61,0.48v1.59H11.12v-1.59c4.56,0,8.51-0.16,11.84-0.48
			c3.34-0.32,5.62-0.72,6.84-1.2c1.22-0.48,2.01-1.06,2.38-1.75c0.37-0.69,0.56-2.53,0.56-5.5v-81.66c0-3.08-0.21-5-0.64-5.74
			c-0.21-0.42-0.93-0.85-2.15-1.27c-1.22-0.42-3.6-0.85-7.15-1.28c-3.55-0.42-7.45-0.64-11.69-0.64v-1.43H73.6v1.43
			c-9.01,0-15.21,0.64-18.6,1.92c-1.06,0.43-1.7,0.85-1.91,1.27c-0.53,0.96-0.8,2.87-0.8,5.74v37.81h45.31v-37.81
			c0-2.98-0.27-4.89-0.79-5.74c-0.21-0.42-0.9-0.85-2.07-1.27c-1.17-0.42-3.55-0.85-7.15-1.28c-3.6-0.42-7.42-0.64-11.45-0.64v-1.43
			h62.48v1.43c-4.77,0-8.69,0.16-11.77,0.48c-3.08,0.32-5.46,0.8-7.15,1.43l-1.43,0.64c-0.74,0.75-1.11,2.87-1.11,6.38v81.66
			c0,3.08,0.21,5.05,0.64,5.9c0.21,0.43,0.85,0.85,1.91,1.28c3.07,1.17,9.38,1.75,18.92,1.75v1.59H76.31v-1.59
			c9.33,0,15.53-0.58,18.6-1.75c1.17-0.43,1.85-0.85,2.07-1.28C97.4,596.67,97.61,594.71,97.61,591.52z"/>
		<path class="st4" d="M233.86,571.46c0,11.47-4.19,20.12-12.56,25.96c-5.83,4.03-11.92,6.05-18.28,6.05
			c-11.98,0-21.99-2.49-30.05-7.48c-8.9-5.52-13.35-13.16-13.35-22.93v-63.21c0-2.97-0.21-4.88-0.64-5.73
			c-0.21-0.42-0.85-0.85-1.91-1.27c-3.39-1.27-9.22-1.91-17.49-1.91v-1.43h61.21v1.43c-4.88,0-8.82,0.16-11.84,0.48
			c-3.02,0.32-5.22,0.74-6.6,1.27c-1.38,0.53-2.17,1.01-2.38,1.43c-0.53,0.95-0.8,2.86-0.8,5.72v59.94c0,10.6,1.59,18.18,4.77,22.73
			c3.82,5.51,10.7,8.27,20.67,8.27c5.51,0,10.86-1.96,16.06-5.88c7.31-5.51,10.97-13.35,10.97-23.53v-41.49
			c0-10.92-1.7-18.47-5.09-22.66c-3.39-4.18-8.96-6.28-16.69-6.28v-1.43h42.77v1.43c-7.95,0-13.25,2.23-15.9,6.69
			c-1.91,3.18-2.86,8.54-2.86,16.08V571.46z"/>
		<path class="st4" d="M344.35,570.55v-44.29c0-9.66-1.64-16.3-4.93-19.92c-3.29-3.61-9.22-5.42-17.81-5.42v-1.43h45.15v1.43
			c-7.53,0-12.77,1.81-15.74,5.42c-2.97,3.61-4.45,10.24-4.45,19.9v76.43h-3.82l-63.13-83.94l-1.74-2.07
			c-0.32,0-0.47,0.96-0.47,2.87v51.93c0,11.68,1.58,19.43,4.74,23.26c3.16,3.82,9.07,5.73,17.72,5.73v1.59h-46.31v-1.59
			c8.27,0,13.94-1.7,17.01-5.1c3.07-3.4,4.61-10.1,4.61-20.1v-54.23c0-5.95-1.59-10.63-4.77-14.03c-3.82-4.04-9.43-6.06-16.85-6.06
			v-1.43h32.91l54.87,71.54c1.37,1.8,2.21,2.7,2.53,2.7C344.2,573.74,344.35,572.68,344.35,570.55z"/>
		<path class="st4" d="M427.34,602.04H365.5v-1.59c4.77,0,8.85-0.16,12.24-0.48c3.39-0.32,5.72-0.72,6.99-1.2
			c1.27-0.48,2.01-0.93,2.23-1.36c0.42-0.74,0.64-2.71,0.64-5.9v-81.66c0-2.98-0.21-4.89-0.64-5.74c-0.21-0.42-0.9-0.85-2.07-1.28
			c-3.39-1.27-9.86-1.91-19.4-1.91v-1.43h62c11.98,0,22.79,4.4,32.43,13.2c11.13,10.07,16.69,22.95,16.69,38.63
			c0,15.48-4.93,27.93-14.79,37.36C452.52,597.59,441.02,602.04,427.34,602.04z M427.41,600.45c10.1,0,17.47-4.09,22.09-12.28
			c4.63-8.19,6.94-20.47,6.94-36.84c0-15.52-2.34-27.65-7.02-36.37c-5-9.36-12.34-14.04-22.01-14.04c-5.11,0-9.01,0.08-11.72,0.24
			c-2.71,0.16-4.63,0.45-5.74,0.88c-1.12,0.42-1.86,1.04-2.23,1.83c-0.37,0.8-0.56,2.79-0.56,5.98v81.66c0,3.08,0.18,5.1,0.56,6.06
			c0.37,0.96,1.09,1.65,2.15,2.07c1.06,0.43,3.35,0.67,6.86,0.72C420.23,600.42,423.79,600.45,427.41,600.45z"/>
		<path class="st4" d="M543.56,602.04h-61.85v-1.59c4.77,0,8.85-0.16,12.24-0.48c3.39-0.32,5.72-0.72,6.99-1.2
			c1.27-0.48,2.01-0.93,2.23-1.36c0.42-0.74,0.64-2.71,0.64-5.9v-81.66c0-2.98-0.21-4.89-0.64-5.74c-0.21-0.42-0.9-0.85-2.07-1.28
			c-3.39-1.27-9.86-1.91-19.4-1.91v-1.43h62c11.98,0,22.79,4.4,32.43,13.2c11.13,10.07,16.69,22.95,16.69,38.63
			c0,15.48-4.93,27.93-14.79,37.36C568.73,597.59,557.23,602.04,543.56,602.04z M543.63,600.45c10.1,0,17.47-4.09,22.09-12.28
			c4.63-8.19,6.94-20.47,6.94-36.84c0-15.52-2.34-27.65-7.02-36.37c-5-9.36-12.34-14.04-22.01-14.04c-5.1,0-9.01,0.08-11.72,0.24
			c-2.71,0.16-4.63,0.45-5.74,0.88c-1.12,0.42-1.86,1.04-2.23,1.83c-0.37,0.8-0.56,2.79-0.56,5.98v81.66c0,3.08,0.18,5.1,0.56,6.06
			c0.37,0.96,1.09,1.65,2.15,2.07c1.06,0.43,3.35,0.67,6.86,0.72C536.45,600.42,540.01,600.45,543.63,600.45z"/>
		<path class="st4" d="M658.1,566.27h-30.64l-4.9,14.05c-1.26,3.52-1.9,6.55-1.9,9.11c0,3.94,1.48,6.76,4.45,8.47
			c2.97,1.7,7.15,2.56,12.56,2.56v1.59H597.3v-1.59c7.31,0,12.98-2.76,17.01-8.28c2.23-3.08,5.09-9.45,8.59-19.11l26.87-74.84h3.18
			l34.34,93.31c1.59,4.35,3.18,6.93,4.77,7.73c1.59,0.79,6.36,1.19,14.31,1.19v1.59h-58.67v-1.59c7.95,0,13.41-0.29,16.38-0.88
			c2.97-0.59,4.45-1.78,4.45-3.59l-0.32-1.6L658.1,566.27z M657.31,564.52l-14.53-40.48l-14.53,40.48H657.31z"/>
		<path class="st4" d="M794.76,602.04h-1.27c0-4.15-0.69-7.26-2.05-9.33c-1.37-2.07-3.09-3.11-5.17-3.11c-3.6,0-6.62,1.06-9.05,3.19
			c-1.17,1.06-2.28,2.13-3.33,3.19c-4.02,3.09-7.34,5.11-9.93,6.06c-2.59,0.95-6.22,1.43-10.88,1.43
			c-11.97,0-22.02-3.76-30.18-11.29c-9.85-9.01-14.77-22.04-14.77-39.11c0-16.53,5.4-30.21,16.2-41.02
			c9.21-9.22,18.68-13.83,28.42-13.83c6.56,0,11.85,0.95,15.88,2.86c5.08,2.44,10.11,7.05,15.08,13.83l9-16.69v44.83h-1.43
			c-2.23-14.05-6.73-24.92-13.51-32.63c-6.36-7.18-13.83-10.77-22.42-10.77c-8.16,0-14.6,4.5-19.32,13.49
			c-4.72,8.99-7.07,21.69-7.07,38.1c0,16.3,2.18,28.84,6.55,37.62c4.37,8.78,10.4,13.18,18.08,13.18c7.16,0,12.74-1.91,16.74-5.74
			c4-3.83,6-9.41,6-16.75v-19.3c0-2.87-0.16-4.67-0.48-5.42c-0.32-0.74-1.01-1.33-2.07-1.76c-1.06-0.43-3.21-0.8-6.44-1.12
			c-3.23-0.32-6.02-0.48-8.35-0.48v-1.43h54.85v1.43c-2.33,0-5.25,0.21-8.74,0.64c-3.5,0.43-5.86,0.74-7.07,0.96
			c-1.22,0.21-1.99,0.58-2.3,1.11c-0.64,1.06-0.95,3.09-0.95,6.06V602.04z"/>
		<path class="st4" d="M856.28,509.54v81.98c0,3.08,0.21,5.05,0.64,5.9c0.21,0.43,0.85,0.85,1.91,1.28
			c3.07,1.17,9.38,1.75,18.92,1.75v1.59H815.1v-1.59c4.56,0,8.51-0.16,11.84-0.48c3.34-0.32,5.62-0.72,6.84-1.2
			c1.22-0.48,2.01-1.06,2.38-1.75c0.37-0.69,0.56-2.53,0.56-5.5v-81.98c0-2.98-0.21-4.84-0.64-5.58c-0.21-0.43-0.9-0.85-2.07-1.28
			c-3.08-1.17-9.38-1.75-18.92-1.75v-1.43h62.8v1.43c-4.56,0-8.51,0.16-11.84,0.48c-3.34,0.32-5.7,0.74-7.07,1.27l-1.59,0.64
			C856.65,503.95,856.28,506.03,856.28,509.54z"/>
		<path class="st4" d="M937.18,507.28c6.16-5.41,9.61-8.43,10.36-9.06v34.66l-1.27-0.48c-1.49-9.28-5.35-17.06-11.61-23.34
			c-6.26-6.28-13.35-9.42-21.3-9.42c-5.51,0-10.28,1.27-14.31,3.81c-4.98,3.07-7.47,7.57-7.47,13.49c0,5.72,2.7,10.37,8.09,13.97
			c4.55,3.07,11.84,5.77,21.89,8.1c13,3.17,21.52,6.19,25.53,9.05c6.55,4.76,9.83,12.7,9.83,23.81c0,10.48-3.39,18.57-10.18,24.29
			c-5.72,4.87-12.67,7.3-20.83,7.3c-6.26,0-11.84-1.01-16.77-3.02c-4.93-2.01-9.2-5.35-12.8-10.02c-6.36,8.37-9.7,12.72-10.02,13.04
			v-43.88l1.27-0.16c2.01,9.12,4.29,16.43,6.84,21.94c2.12,4.66,4.61,8.53,7.47,11.61c5.62,6.04,13.78,9.06,24.48,9.06
			c4.98,0,9.54-1.64,13.67-4.92c4.77-3.81,7.15-8.57,7.15-14.29c0-6.99-3.23-12.49-9.68-16.51c-4.44-2.75-12.18-5.63-23.23-8.65
			c-11.05-3.02-18.74-6.11-23.08-9.29c-6.34-4.78-9.52-11.73-9.52-20.86c0-8.17,2.89-15.1,8.68-20.78
			c5.79-5.68,12.67-8.52,20.64-8.52c6.8,0,12.38,1.01,16.74,3.02C929.16,501.88,932.29,503.89,937.18,507.28z"/>
		<path class="st4" d="M1075.78,587.41c1.58,3.08,3.24,5.09,4.98,6.04s3.72,1.43,5.93,1.43c3.58,0,5.95-2.03,7.11-6.1
			c1.16-4.07,1.74-10.92,1.74-20.53h2.07c0,12.96-0.74,21.36-2.23,25.18c-2.66,6.69-8.71,10.04-18.16,10.04
			c-5.42,0-10.09-2.88-14.02-8.65c-0.85-1.28-2.71-4.59-5.58-9.93c-3.61,6.83-7.33,11.53-11.15,14.09
			c-4.57,2.99-11.15,4.48-19.76,4.48c-5.09,0-9.65-2.44-13.67-7.31c-4.35-5.3-6.52-11.82-6.52-19.56c0-2.97,0.27-5.78,0.8-8.43
			c0.53-2.65,1.54-5.62,3.03-8.9c2.76-6.46,6.14-11.58,10.12-15.34c3.99-3.76,8.1-6.12,12.35-7.07c-1.19-2.12-2.13-4.42-2.83-6.92
			c-0.7-2.49-1.05-5.17-1.05-8.03c0-5.62,1.73-10.76,5.19-15.42c3.46-4.66,8.01-6.99,13.66-6.99c5.11,0,9.16,1.27,12.14,3.82
			c2.98,2.54,4.47,6.15,4.47,10.81c0,4.24-1.7,8.11-5.11,11.61c-2.88,2.97-6.76,5.46-11.66,7.47l17.73,33.94l9.8-17.37
			c2-3.72,3.01-6.43,3.01-8.13c0-2.34-1.33-3.9-4-4.7c-2.66-0.79-7.14-1.19-13.42-1.19v-1.59h38.47v1.59
			c-4.45,0-8.35,0.82-11.69,2.46c-3.34,1.64-6.02,4.32-8.03,8.03l-13.04,23.69L1075.78,587.41z M1056.6,582.8l-22.8-44.52
			c-4.12,1.17-7.18,2.76-9.18,4.77c-2.75,2.65-4.7,6.79-5.86,12.4c-0.42,2.01-0.63,4.35-0.63,6.99c0,4.35,0.61,8.56,1.82,12.64
			c1.21,4.08,2.93,7.71,5.14,10.89c2.64,4.03,5.3,7.05,8,9.06c2.69,2.01,5.25,3.02,7.68,3.02c2.85,0,5.57-1.32,8.15-3.97
			C1051.5,591.44,1054.07,587.68,1056.6,582.8z M1047.15,531.93c4.1-1.79,7.04-4.54,8.83-8.23c1.47-3.06,2.21-7.01,2.21-11.86
			c0-2.95-0.76-5.51-2.29-7.67c-1.53-2.16-3.6-3.24-6.23-3.24c-3.68,0-6.47,1.16-8.36,3.48s-2.84,4.91-2.84,7.75
			c0,2.22,0.42,4.06,1.26,5.54L1047.15,531.93z"/>
		<path class="st4" d="M1237.68,499.49v45.31h-2.23c-2.44-17.34-6.31-29.25-11.6-35.74c-4.35-5.43-10.76-8.14-19.24-8.14
			c-2.12,0-3.29,0.11-3.5,0.32c-0.42,0.32-0.64,1.7-0.64,4.15v86.13c0,3.08,0.21,5.05,0.64,5.9c0.21,0.43,0.95,0.88,2.23,1.36
			c1.27,0.48,3.71,0.88,7.31,1.2c3.6,0.32,8.48,0.48,14.63,0.48v1.59h-69.16v-1.59c6.04,0,10.86-0.16,14.47-0.48
			c3.6-0.32,6.04-0.72,7.31-1.2c1.27-0.48,2.09-1.06,2.46-1.75c0.37-0.69,0.56-2.53,0.56-5.5v-85.97c0-2.76-0.32-4.25-0.95-4.47
			c-0.32-0.1-1.43-0.16-3.34-0.16c-8.27,0-14.57,2.66-18.92,7.98c-5.3,6.6-9.28,18.46-11.92,35.58h-2.23v-44.99H1237.68z"/>
		<path class="st4" d="M1348.01,579.14v5.25c0,6.26-0.59,10.6-1.76,13.04c-1.92,4.03-5.7,6.04-11.34,6.04
			c-7.35,0-12.2-2.75-14.54-8.27c-1.92-4.45-2.88-12.93-2.88-25.44v-3.34c0-1.06,0.05-2.17,0.16-3.34c0-5.62-1.32-9.4-3.96-11.37
			c-2.64-1.96-6.43-2.94-11.39-2.94h-18.67v42.74c0,3.19,0.18,5.21,0.56,6.06c0.37,0.85,1.17,1.52,2.38,1.99
			c1.22,0.48,3.71,0.77,7.47,0.88c3.76,0.11,7.71,0.16,11.84,0.16v1.43h-64.71v-1.59c11.13,0,17.81-0.42,20.03-1.28
			c1.06-0.42,1.8-1.03,2.23-1.83c0.42-0.8,0.64-2.74,0.64-5.82v-81.98c0-2.98-0.21-4.84-0.64-5.58c-0.21-0.43-0.9-0.85-2.07-1.28
			c-3.08-1.17-9.8-1.75-20.19-1.75v-1.43h65.03c11.45,0,20.56,3.08,27.35,9.23c5.41,4.88,8.11,9.92,8.11,15.13
			c0,6.16-2.13,11.2-6.39,15.12c-5.11,4.78-13.2,7.8-24.27,9.07c11.3,2.22,18.76,8.52,22.39,18.89c1.82,5.19,2.74,13.02,2.74,23.5
			c0,3.07,0.27,5.29,0.8,6.67c0.54,1.38,1.82,2.06,3.86,2.06c2.25,0,3.81-1.77,4.67-5.33c0.86-3.55,1.29-8.45,1.29-14.71H1348.01z
			 M1283.62,547.03h14.73c7.7,0,13.4-1.44,17.1-4.32c4.43-3.41,6.65-9.18,6.65-17.29c0-8.96-1.82-15.29-5.46-18.97
			c-3.64-3.68-9.69-5.53-18.13-5.53h-7.6c-2.22,0-3.86,0.16-4.91,0.48c-1.06,0.32-1.72,0.99-1.98,2c-0.26,1.01-0.4,3.07-0.4,6.16
			V547.03z"/>
		<path class="st4" d="M1412.63,566.27h-30.64l-4.9,14.05c-1.26,3.52-1.89,6.55-1.89,9.11c0,3.94,1.48,6.76,4.45,8.47
			c2.97,1.7,7.15,2.56,12.56,2.56v1.59h-40.38v-1.59c7.31,0,12.98-2.76,17.01-8.28c2.23-3.08,5.09-9.45,8.59-19.11l26.87-74.84h3.18
			l34.34,93.31c1.59,4.35,3.18,6.93,4.77,7.73c1.59,0.79,6.36,1.19,14.31,1.19v1.59h-58.67v-1.59c7.95,0,13.41-0.29,16.38-0.88
			c2.97-0.59,4.45-1.78,4.45-3.59l-0.32-1.6L1412.63,566.27z M1388.32,475.96c2.25,0,4.17,0.79,5.78,2.36
			c1.6,1.58,2.41,3.46,2.41,5.67c0,2.21-0.8,4.09-2.41,5.67c-1.6,1.58-3.53,2.36-5.78,2.36c-2.25,0-4.18-0.78-5.78-2.36
			c-1.6-1.57-2.41-3.46-2.41-5.67c0-2.2,0.8-4.09,2.41-5.67C1384.14,476.75,1386.07,475.96,1388.32,475.96z M1411.84,564.52
			l-14.53-40.48l-14.53,40.48H1411.84z M1416.3,475.96c2.25,0,4.17,0.79,5.78,2.36c1.6,1.58,2.41,3.46,2.41,5.67
			c0,2.21-0.8,4.09-2.41,5.67c-1.6,1.58-3.53,2.36-5.78,2.36c-2.25,0-4.18-0.78-5.78-2.36c-1.6-1.57-2.41-3.46-2.41-5.67
			c0-2.2,0.8-4.09,2.41-5.67C1412.12,476.75,1414.05,475.96,1416.3,475.96z"/>
		<path class="st4" d="M1552.63,570.55v-44.29c0-9.66-1.64-16.3-4.93-19.92c-3.29-3.61-9.22-5.42-17.81-5.42v-1.43h45.15v1.43
			c-7.53,0-12.77,1.81-15.74,5.42c-2.97,3.61-4.45,10.24-4.45,19.9v76.43h-3.82l-63.13-83.94l-1.74-2.07
			c-0.32,0-0.47,0.96-0.47,2.87v51.93c0,11.68,1.58,19.43,4.75,23.26c3.16,3.82,9.07,5.73,17.72,5.73v1.59h-46.31v-1.59
			c8.27,0,13.94-1.7,17.01-5.1c3.07-3.4,4.61-10.1,4.61-20.1v-54.23c0-5.95-1.59-10.63-4.77-14.03c-3.82-4.04-9.43-6.06-16.85-6.06
			v-1.43h32.91l54.87,71.54c1.37,1.8,2.21,2.7,2.53,2.7C1552.47,573.74,1552.63,572.68,1552.63,570.55z"/>
		<path class="st4" d="M1614.15,509.54v81.98c0,3.08,0.21,5.05,0.64,5.9c0.21,0.43,0.85,0.85,1.91,1.28
			c3.07,1.17,9.38,1.75,18.92,1.75v1.59h-62.64v-1.59c4.56,0,8.51-0.16,11.84-0.48s5.62-0.72,6.84-1.2
			c1.22-0.48,2.01-1.06,2.38-1.75c0.37-0.69,0.56-2.53,0.56-5.5v-81.98c0-2.98-0.21-4.84-0.63-5.58c-0.21-0.43-0.9-0.85-2.07-1.28
			c-3.07-1.17-9.38-1.75-18.92-1.75v-1.43h62.8v1.43c-4.56,0-8.51,0.16-11.84,0.48s-5.7,0.74-7.08,1.27l-1.59,0.64
			C1614.52,503.95,1614.15,506.03,1614.15,509.54z"/>
		<path class="st4" d="M1730.37,570.55v-44.29c0-9.66-1.64-16.3-4.93-19.92c-3.29-3.61-9.22-5.42-17.81-5.42v-1.43h45.15v1.43
			c-7.53,0-12.77,1.81-15.74,5.42c-2.97,3.61-4.45,10.24-4.45,19.9v76.43h-3.82l-63.13-83.94l-1.74-2.07
			c-0.32,0-0.47,0.96-0.47,2.87v51.93c0,11.68,1.58,19.43,4.74,23.26c3.16,3.82,9.07,5.73,17.72,5.73v1.59h-46.32v-1.59
			c8.27,0,13.94-1.7,17.01-5.1c3.07-3.4,4.61-10.1,4.61-20.1v-54.23c0-5.95-1.59-10.63-4.77-14.03c-3.82-4.04-9.43-6.06-16.85-6.06
			v-1.43h32.91l54.87,71.54c1.37,1.8,2.21,2.7,2.53,2.7C1730.21,573.74,1730.37,572.68,1730.37,570.55z"/>
		<path class="st4" d="M1838.16,602.04h-1.27c0-4.15-0.69-7.26-2.05-9.33c-1.37-2.07-3.09-3.11-5.17-3.11
			c-3.6,0-6.62,1.06-9.05,3.19c-1.17,1.06-2.28,2.13-3.33,3.19c-4.02,3.09-7.34,5.11-9.93,6.06c-2.59,0.95-6.22,1.43-10.88,1.43
			c-11.97,0-22.02-3.76-30.18-11.29c-9.85-9.01-14.77-22.04-14.77-39.11c0-16.53,5.4-30.21,16.2-41.02
			c9.21-9.22,18.68-13.83,28.42-13.83c6.56,0,11.85,0.95,15.88,2.86c5.08,2.44,10.11,7.05,15.08,13.83l9-16.69v44.83h-1.43
			c-2.23-14.05-6.73-24.92-13.51-32.63c-6.36-7.18-13.83-10.77-22.42-10.77c-8.16,0-14.6,4.5-19.32,13.49
			c-4.72,8.99-7.08,21.69-7.08,38.1c0,16.3,2.18,28.84,6.55,37.62c4.37,8.78,10.4,13.18,18.08,13.18c7.16,0,12.74-1.91,16.74-5.74
			c4-3.83,6-9.41,6-16.75v-19.3c0-2.87-0.16-4.67-0.48-5.42c-0.32-0.74-1.01-1.33-2.07-1.76c-1.06-0.43-3.21-0.8-6.44-1.12
			c-3.23-0.32-6.02-0.48-8.35-0.48v-1.43h54.85v1.43c-2.33,0-5.25,0.21-8.74,0.64c-3.5,0.43-5.86,0.74-7.08,0.96
			c-1.22,0.21-1.99,0.58-2.31,1.11c-0.64,1.06-0.95,3.09-0.95,6.06V602.04z"/>
	</g>
	<g>
		<path class="st4" d="M378.71,686.14l8.99,24.9l7.51-24.9h14.8v0.48c-3.24,0-5.38,0.22-6.41,0.64c-0.36,0.14-0.57,0.29-0.64,0.43
			c-0.18,0.32-0.27,0.97-0.27,1.93v27.44c0,1.07,0.07,1.73,0.21,1.98c0.07,0.14,0.33,0.3,0.77,0.46c0.45,0.16,1.22,0.3,2.32,0.4
			c1.1,0.11,2.44,0.16,4.01,0.16v0.53H389.4v-0.53c1.28,0,2.47-0.05,3.55-0.16c1.09-0.11,1.83-0.24,2.24-0.4
			c0.41-0.16,0.65-0.31,0.72-0.46c0.14-0.29,0.21-0.95,0.21-1.98l-0.05-29.11c0-0.61-0.07-0.91-0.21-0.91c-0.14,0-0.3,0.27-0.48,0.8
			l-9.75,32.75h-1.17l-11.51-32.75l-0.43-0.8c-0.11,0-0.16,0.3-0.16,0.91v22.39c0,3.95,0.53,6.56,1.58,7.83
			c1.05,1.26,3.04,1.9,5.96,1.9v0.53h-15.12v-0.53c2.49,0,4.26-0.64,5.29-1.93c1.03-1.29,1.55-3.47,1.55-6.54v-16.56
			c0-3.14-0.48-5.33-1.44-6.57c-0.96-1.23-2.76-1.85-5.4-1.85v-0.53L378.71,686.14z"/>
		<path class="st4" d="M424.81,702.7v14.31c0,1,0.05,1.63,0.16,1.88c0.11,0.25,0.44,0.47,1.01,0.67c0.57,0.2,1.23,0.31,1.97,0.35
			c0.75,0.04,2.08,0.05,4,0.05c4.05,0,7.11-1.21,9.19-3.62s3.38-6.28,3.92-11.61h0.69v15.87h-34.73v-0.53c3.17,0,5.27-0.2,6.3-0.59
			c0.36-0.14,0.6-0.33,0.72-0.56c0.12-0.23,0.19-0.85,0.19-1.85v-27.44c0-1.03-0.07-1.68-0.21-1.93c-0.07-0.14-0.3-0.29-0.69-0.43
			c-0.39-0.14-1.19-0.29-2.4-0.43c-1.21-0.14-2.51-0.22-3.9-0.22v-0.48h32.96v13.36h-0.69c0-2.75-0.69-5.38-2.08-7.89
			c-1.85-3.33-4.46-4.99-7.83-4.99c-1.35,0-2.71,0.01-4.08,0.03c-1.37,0.02-2.58,0.19-3.65,0.51c-0.32,0.14-0.54,0.33-0.67,0.57
			c-0.12,0.23-0.19,0.87-0.19,1.91v12.53c3.68,0,5.97-0.37,6.85-1.12c1.35-1.14,2.28-4.2,2.82-9.19h0.64v21.05h-0.64
			c-0.53-4.88-1.45-7.89-2.76-9.03C430.8,703.09,428.5,702.7,424.81,702.7z"/>
		<path class="st4" d="M469.69,720.6h-20.78v-0.53c1.6,0,2.97-0.05,4.11-0.16c1.14-0.11,1.92-0.24,2.35-0.4
			c0.43-0.16,0.68-0.31,0.75-0.46c0.14-0.25,0.21-0.91,0.21-1.98v-27.44c0-1-0.07-1.64-0.21-1.93c-0.07-0.14-0.3-0.29-0.69-0.43
			c-1.14-0.43-3.31-0.64-6.52-0.64v-0.48h20.84c4.02,0,7.66,1.48,10.9,4.43c3.74,3.38,5.61,7.71,5.61,12.98
			c0,5.2-1.66,9.39-4.97,12.55C478.15,719.1,474.28,720.6,469.69,720.6z M469.71,720.06c3.39,0,5.87-1.37,7.42-4.13
			c1.55-2.75,2.33-6.88,2.33-12.38c0-5.22-0.79-9.29-2.36-12.22c-1.68-3.14-4.15-4.72-7.4-4.72c-1.72,0-3.03,0.03-3.94,0.08
			c-0.91,0.05-1.55,0.15-1.93,0.29c-0.38,0.14-0.63,0.35-0.75,0.62c-0.13,0.27-0.19,0.94-0.19,2.01v27.44
			c0,1.04,0.06,1.72,0.19,2.04c0.12,0.32,0.37,0.55,0.72,0.7c0.36,0.14,1.13,0.22,2.3,0.24C467.3,720.05,468.5,720.06,469.71,720.06
			z"/>
		<path class="st4" d="M537.59,712.9v1.76c0,2.1-0.2,3.56-0.59,4.38c-0.64,1.35-1.92,2.03-3.81,2.03c-2.47,0-4.1-0.93-4.89-2.78
			c-0.64-1.5-0.97-4.35-0.97-8.55v-1.12c0-0.36,0.02-0.73,0.05-1.12c0-1.89-0.44-3.16-1.33-3.82c-0.89-0.66-2.16-0.99-3.83-0.99
			h-6.27v14.36c0,1.07,0.06,1.75,0.19,2.04c0.12,0.29,0.39,0.51,0.8,0.67c0.41,0.16,1.25,0.26,2.51,0.29
			c1.26,0.04,2.59,0.05,3.98,0.05v0.48h-21.74v-0.53c3.74,0,5.98-0.14,6.73-0.43c0.36-0.14,0.6-0.35,0.75-0.62
			c0.14-0.27,0.21-0.92,0.21-1.96v-27.55c0-1-0.07-1.63-0.21-1.88c-0.07-0.14-0.3-0.29-0.69-0.43c-1.03-0.39-3.29-0.59-6.78-0.59
			v-0.48h21.85c3.85,0,6.91,1.03,9.19,3.1c1.82,1.64,2.72,3.33,2.72,5.08c0,2.07-0.72,3.76-2.15,5.08
			c-1.72,1.61-4.43,2.62-8.15,3.05c3.8,0.75,6.3,2.86,7.52,6.35c0.61,1.74,0.92,4.38,0.92,7.9c0,1.03,0.09,1.78,0.27,2.24
			c0.18,0.46,0.61,0.69,1.3,0.69c0.76,0,1.28-0.6,1.57-1.79c0.29-1.19,0.43-2.84,0.43-4.94H537.59z M515.95,702.11h4.95
			c2.59,0,4.5-0.48,5.75-1.45c1.49-1.15,2.23-3.08,2.23-5.81c0-3.01-0.61-5.14-1.84-6.37c-1.22-1.24-3.25-1.86-6.09-1.86h-2.55
			c-0.75,0-1.3,0.05-1.65,0.16c-0.35,0.11-0.58,0.33-0.67,0.67c-0.09,0.34-0.13,1.03-0.13,2.07V702.11z"/>
		<path class="st4" d="M552.92,702.7v14.31c0,1,0.05,1.63,0.16,1.88c0.11,0.25,0.44,0.47,1.01,0.67c0.57,0.2,1.23,0.31,1.97,0.35
			c0.75,0.04,2.08,0.05,4,0.05c4.05,0,7.11-1.21,9.19-3.62s3.38-6.28,3.92-11.61h0.69v15.87h-34.73v-0.53c3.17,0,5.27-0.2,6.3-0.59
			c0.36-0.14,0.6-0.33,0.72-0.56c0.12-0.23,0.19-0.85,0.19-1.85v-27.44c0-1.03-0.07-1.68-0.21-1.93c-0.07-0.14-0.3-0.29-0.69-0.43
			c-0.39-0.14-1.19-0.29-2.4-0.43c-1.21-0.14-2.51-0.22-3.9-0.22v-0.48h32.96v13.36h-0.69c0-2.75-0.69-5.38-2.08-7.89
			c-1.85-3.33-4.46-4.99-7.83-4.99c-1.35,0-2.71,0.01-4.08,0.03c-1.37,0.02-2.58,0.19-3.65,0.51c-0.32,0.14-0.54,0.33-0.67,0.57
			c-0.12,0.23-0.19,0.87-0.19,1.91v12.53c3.68,0,5.97-0.37,6.85-1.12c1.35-1.14,2.28-4.2,2.82-9.19h0.64v21.05h-0.64
			c-0.53-4.88-1.45-7.89-2.76-9.03C558.91,703.09,556.6,702.7,552.92,702.7z"/>
		<path class="st4" d="M595.39,688.76c2.07-1.82,3.23-2.83,3.48-3.04v11.65l-0.43-0.16c-0.5-3.12-1.8-5.73-3.9-7.84
			c-2.1-2.11-4.49-3.16-7.16-3.16c-1.85,0-3.46,0.43-4.81,1.28c-1.67,1.03-2.51,2.54-2.51,4.53c0,1.92,0.91,3.49,2.72,4.69
			c1.53,1.03,3.98,1.94,7.35,2.72c4.37,1.07,7.23,2.08,8.58,3.04c2.2,1.6,3.3,4.27,3.3,8c0,3.52-1.14,6.24-3.42,8.16
			c-1.92,1.64-4.26,2.45-7,2.45c-2.1,0-3.98-0.34-5.64-1.02c-1.66-0.68-3.09-1.8-4.3-3.37c-2.14,2.81-3.26,4.27-3.37,4.38v-14.75
			l0.43-0.05c0.68,3.06,1.44,5.52,2.3,7.37c0.71,1.57,1.55,2.87,2.51,3.9c1.89,2.03,4.63,3.05,8.23,3.05c1.67,0,3.21-0.55,4.59-1.65
			c1.6-1.28,2.4-2.88,2.4-4.8c0-2.35-1.08-4.2-3.25-5.55c-1.49-0.92-4.09-1.89-7.81-2.91c-3.71-1.01-6.3-2.05-7.75-3.12
			c-2.13-1.61-3.2-3.94-3.2-7.01c0-2.75,0.97-5.07,2.92-6.98c1.95-1.91,4.26-2.86,6.94-2.86c2.28,0,4.16,0.34,5.62,1.01
			C592.69,686.94,593.74,687.62,595.39,688.76z"/>
		<path class="st4" d="M619.86,705v12.06c0,1.04,0.07,1.7,0.21,1.98c0.07,0.14,0.32,0.3,0.75,0.46c0.43,0.16,1.26,0.3,2.51,0.4
			c1.25,0.11,2.96,0.16,5.13,0.16v0.53h-23.08v-0.53c1.82,0,3.32-0.05,4.51-0.16c1.19-0.11,2-0.24,2.43-0.4
			c0.43-0.16,0.68-0.31,0.75-0.46c0.14-0.29,0.21-0.95,0.21-1.98v-27.55c0-0.96-0.07-1.59-0.21-1.88c-0.07-0.14-0.29-0.29-0.64-0.43
			c-1.1-0.39-3.46-0.59-7.05-0.59v-0.48h20.73c4.24,0,7.59,0.98,10.04,2.94c2.32,1.85,3.47,4.27,3.47,7.26
			c0,2.03-0.89,3.88-2.67,5.56c-2.21,2.07-5.2,3.1-8.98,3.1H619.86z M619.86,704.52h5.42c2.97,0,5.04-0.77,6.22-2.3
			c1-1.32,1.5-3.43,1.5-6.32c0-3.04-0.66-5.34-1.99-6.91c-1.32-1.57-3.36-2.36-6.11-2.36h-2.58c-0.75,0-1.31,0.05-1.66,0.16
			c-0.36,0.11-0.58,0.33-0.67,0.67c-0.09,0.34-0.13,1.03-0.13,2.06V704.52z"/>
		<path class="st4" d="M654.21,702.7v14.31c0,1,0.05,1.63,0.16,1.88c0.11,0.25,0.44,0.47,1.01,0.67c0.57,0.2,1.23,0.31,1.97,0.35
			c0.75,0.04,2.08,0.05,4,0.05c4.05,0,7.11-1.21,9.19-3.62s3.38-6.28,3.92-11.61h0.69v15.87h-34.73v-0.53c3.17,0,5.27-0.2,6.3-0.59
			c0.36-0.14,0.6-0.33,0.72-0.56c0.12-0.23,0.19-0.85,0.19-1.85v-27.44c0-1.03-0.07-1.68-0.21-1.93c-0.07-0.14-0.3-0.29-0.69-0.43
			c-0.39-0.14-1.19-0.29-2.4-0.43c-1.21-0.14-2.51-0.22-3.9-0.22v-0.48h32.96v13.36h-0.69c0-2.75-0.69-5.38-2.08-7.89
			c-1.85-3.33-4.46-4.99-7.83-4.99c-1.35,0-2.71,0.01-4.08,0.03c-1.37,0.02-2.58,0.19-3.65,0.51c-0.32,0.14-0.54,0.33-0.67,0.57
			c-0.12,0.23-0.19,0.87-0.19,1.91v12.53c3.68,0,5.97-0.37,6.85-1.12c1.35-1.14,2.28-4.2,2.82-9.19h0.64v21.05h-0.64
			c-0.53-4.88-1.45-7.89-2.76-9.03C660.2,703.09,657.89,702.7,654.21,702.7z"/>
		<path class="st4" d="M691.88,705.69l12.22-12.2c1.68-1.68,2.52-3.08,2.52-4.19c0-0.89-0.5-1.57-1.5-2.01
			c-1-0.45-2.46-0.67-4.38-0.67v-0.48h15.01v0.48c-1.71,0-3.33,0.48-4.86,1.45c-0.96,0.61-3.14,2.69-6.55,6.23l-3.51,3.6L711,717.12
			c0.75,1.39,1.43,2.24,2.06,2.54c0.62,0.3,2.23,0.46,4.83,0.46v0.48h-18.54v-0.48c2.21,0,3.66-0.05,4.35-0.16
			c0.69-0.11,1.04-0.37,1.04-0.8c0-0.14-0.02-0.27-0.05-0.38l-0.48-0.96l-7.89-15.35l-4.45,4.29v10.3c0,1.04,0.07,1.7,0.21,1.98
			c0.07,0.14,0.31,0.3,0.72,0.46c0.41,0.16,1.15,0.3,2.22,0.4c1.07,0.11,2.26,0.16,3.58,0.16v0.53h-20.57v-0.53
			c1.46,0,2.76-0.07,3.9-0.21c1.14-0.14,1.88-0.28,2.22-0.4c0.34-0.12,0.6-0.22,0.77-0.29c0.25-0.21,0.37-0.91,0.37-2.09v-27.55
			c0-1-0.07-1.63-0.21-1.88c-0.07-0.14-0.3-0.29-0.69-0.43c-1.03-0.39-3.15-0.59-6.36-0.59v-0.48h21.05v0.48
			c-3.17,0-5.27,0.2-6.3,0.59l-0.53,0.21c-0.25,0.22-0.37,0.91-0.37,2.1V705.69z"/>
		<path class="st4" d="M749.63,686.14v15.23h-0.75c-0.82-5.83-2.12-9.83-3.9-12.01c-1.46-1.82-3.62-2.74-6.46-2.74
			c-0.71,0-1.1,0.04-1.18,0.11c-0.14,0.11-0.21,0.57-0.21,1.39v28.94c0,1.04,0.07,1.7,0.21,1.98c0.07,0.14,0.32,0.3,0.75,0.46
			c0.43,0.16,1.25,0.3,2.46,0.4c1.21,0.11,2.85,0.16,4.91,0.16v0.53h-23.24v-0.53c2.03,0,3.65-0.05,4.86-0.16
			c1.21-0.11,2.03-0.24,2.46-0.4c0.43-0.16,0.7-0.36,0.83-0.59c0.12-0.23,0.19-0.85,0.19-1.85v-28.89c0-0.93-0.11-1.43-0.32-1.5
			c-0.11-0.03-0.48-0.05-1.12-0.05c-2.78,0-4.9,0.9-6.36,2.68c-1.78,2.22-3.12,6.2-4.01,11.96H718v-15.12H749.63z"/>
		<path class="st4" d="M772.06,717.06v-27.44c0-1.03-0.07-1.68-0.21-1.93c-0.07-0.14-0.31-0.29-0.72-0.43
			c-0.41-0.14-1.21-0.29-2.4-0.43c-1.19-0.14-2.5-0.22-3.93-0.22v-0.48h33.02v13.36h-0.69c0-2.75-0.69-5.38-2.08-7.89
			c-1.85-3.33-4.46-4.99-7.83-4.99c-2.31,0-3.93,0.04-4.87,0.11c-0.94,0.07-1.89,0.25-2.85,0.54l-0.48,0.22
			c-0.25,0.25-0.37,0.97-0.37,2.15v12.53c3.79,0,6.15-0.37,7.07-1.12c1.49-1.21,2.44-4.27,2.87-9.19h0.64v21.05h-0.64
			c0-4.81-0.81-7.82-2.44-9.03c-1.03-0.78-3.53-1.18-7.49-1.18v14.36c0,1.04,0.07,1.7,0.21,1.98c0.07,0.14,0.32,0.3,0.75,0.46
			c0.43,0.16,1.26,0.3,2.48,0.4c1.23,0.11,2.89,0.16,5,0.16v0.53H764.8v-0.53c1.53,0,2.86-0.05,3.98-0.16
			c1.12-0.11,1.89-0.24,2.3-0.4c0.41-0.16,0.68-0.36,0.8-0.59C772,718.68,772.06,718.06,772.06,717.06z"/>
		<path class="st4" d="M830.88,703.34c0,5.24-1.76,9.58-5.29,13.04c-3.21,3.13-6.82,4.7-10.85,4.7c-4.1,0-7.71-1.5-10.84-4.49
			c-3.53-3.38-5.29-7.8-5.29-13.25c0-5.24,1.76-9.56,5.29-12.98c3.21-3.1,6.82-4.65,10.84-4.65c4.1,0,7.71,1.48,10.85,4.43
			C829.12,693.49,830.88,697.89,830.88,703.34z M823.77,703.37c0-5.62-0.75-9.89-2.26-12.8s-3.77-4.37-6.79-4.37
			c-2.98,0-5.23,1.46-6.74,4.37c-1.51,2.92-2.26,7.18-2.26,12.8c0,5.55,0.75,9.81,2.26,12.78c1.51,2.97,3.75,4.45,6.74,4.45
			c2.95,0,5.19-1.48,6.74-4.45C823,713.17,823.77,708.91,823.77,703.37z M810.87,678.23c0.76,0,1.4,0.26,1.94,0.79
			c0.54,0.53,0.81,1.16,0.81,1.9c0,0.74-0.27,1.38-0.81,1.9c-0.54,0.53-1.19,0.79-1.94,0.79c-0.76,0-1.4-0.26-1.94-0.79
			c-0.54-0.53-0.81-1.16-0.81-1.9c0-0.74,0.27-1.37,0.81-1.9C809.47,678.5,810.12,678.23,810.87,678.23z M820.28,678.23
			c0.75,0,1.4,0.26,1.94,0.79c0.54,0.53,0.81,1.16,0.81,1.9c0,0.74-0.27,1.38-0.81,1.9c-0.54,0.53-1.19,0.79-1.94,0.79
			c-0.76,0-1.4-0.26-1.94-0.79c-0.54-0.53-0.81-1.16-0.81-1.9c0-0.74,0.27-1.37,0.81-1.9C818.87,678.5,819.52,678.23,820.28,678.23z
			"/>
		<path class="st4" d="M868.92,712.9v1.76c0,2.1-0.2,3.56-0.59,4.38c-0.64,1.35-1.92,2.03-3.81,2.03c-2.47,0-4.1-0.93-4.89-2.78
			c-0.64-1.5-0.97-4.35-0.97-8.55v-1.12c0-0.36,0.02-0.73,0.05-1.12c0-1.89-0.44-3.16-1.33-3.82c-0.89-0.66-2.16-0.99-3.83-0.99
			h-6.27v14.36c0,1.07,0.06,1.75,0.19,2.04c0.12,0.29,0.39,0.51,0.8,0.67c0.41,0.16,1.25,0.26,2.51,0.29
			c1.26,0.04,2.59,0.05,3.98,0.05v0.48h-21.74v-0.53c3.74,0,5.98-0.14,6.73-0.43c0.36-0.14,0.6-0.35,0.75-0.62
			c0.14-0.27,0.21-0.92,0.21-1.96v-27.55c0-1-0.07-1.63-0.21-1.88c-0.07-0.14-0.3-0.29-0.69-0.43c-1.03-0.39-3.29-0.59-6.78-0.59
			v-0.48h21.85c3.85,0,6.91,1.03,9.19,3.1c1.82,1.64,2.72,3.33,2.72,5.08c0,2.07-0.72,3.76-2.15,5.08
			c-1.72,1.61-4.43,2.62-8.15,3.05c3.8,0.75,6.3,2.86,7.52,6.35c0.61,1.74,0.92,4.38,0.92,7.9c0,1.03,0.09,1.78,0.27,2.24
			c0.18,0.46,0.61,0.69,1.3,0.69c0.76,0,1.28-0.6,1.57-1.79c0.29-1.19,0.43-2.84,0.43-4.94H868.92z M847.28,702.11h4.95
			c2.59,0,4.5-0.48,5.75-1.45c1.49-1.15,2.23-3.08,2.23-5.81c0-3.01-0.61-5.14-1.84-6.37c-1.22-1.24-3.25-1.86-6.09-1.86h-2.55
			c-0.75,0-1.3,0.05-1.65,0.16c-0.35,0.11-0.58,0.33-0.67,0.67c-0.09,0.34-0.13,1.03-0.13,2.07V702.11z"/>
		<path class="st4" d="M898.14,686.14l8.99,24.9l7.51-24.9h14.8v0.48c-3.24,0-5.38,0.22-6.41,0.64c-0.36,0.14-0.57,0.29-0.64,0.43
			c-0.18,0.32-0.27,0.97-0.27,1.93v27.44c0,1.07,0.07,1.73,0.21,1.98c0.07,0.14,0.33,0.3,0.77,0.46c0.45,0.16,1.22,0.3,2.32,0.4
			c1.1,0.11,2.44,0.16,4.01,0.16v0.53h-20.62v-0.53c1.28,0,2.47-0.05,3.55-0.16c1.09-0.11,1.83-0.24,2.24-0.4
			c0.41-0.16,0.65-0.31,0.72-0.46c0.14-0.29,0.21-0.95,0.21-1.98l-0.05-29.11c0-0.61-0.07-0.91-0.21-0.91c-0.14,0-0.3,0.27-0.48,0.8
			l-9.75,32.75h-1.17l-11.51-32.75l-0.43-0.8c-0.11,0-0.16,0.3-0.16,0.91v22.39c0,3.95,0.53,6.56,1.58,7.83
			c1.05,1.26,3.04,1.9,5.96,1.9v0.53H884.2v-0.53c2.49,0,4.26-0.64,5.29-1.93c1.03-1.29,1.55-3.47,1.55-6.54v-16.56
			c0-3.14-0.48-5.33-1.44-6.57c-0.96-1.23-2.76-1.85-5.4-1.85v-0.53L898.14,686.14z"/>
		<path class="st4" d="M950.95,708.58h-10.29L939,713.3c-0.43,1.18-0.64,2.2-0.64,3.06c0,1.32,0.5,2.27,1.5,2.85
			c1,0.57,2.4,0.86,4.22,0.86v0.53h-13.57v-0.53c2.46,0,4.36-0.93,5.72-2.78c0.75-1.03,1.71-3.17,2.88-6.42l9.03-25.15h1.07
			l11.54,31.35c0.53,1.46,1.07,2.33,1.6,2.6c0.53,0.27,2.14,0.4,4.81,0.4v0.53h-19.71v-0.53c2.67,0,4.51-0.1,5.5-0.29
			c1-0.2,1.5-0.6,1.5-1.21l-0.11-0.54L950.95,708.58z M942.78,678.23c0.75,0,1.4,0.26,1.94,0.79c0.54,0.53,0.81,1.16,0.81,1.9
			c0,0.74-0.27,1.38-0.81,1.9c-0.54,0.53-1.19,0.79-1.94,0.79c-0.76,0-1.4-0.26-1.94-0.79c-0.54-0.53-0.81-1.16-0.81-1.9
			c0-0.74,0.27-1.37,0.81-1.9C941.37,678.5,942.02,678.23,942.78,678.23z M950.68,707.99l-4.88-13.6l-4.88,13.6H950.68z
			 M952.18,678.23c0.76,0,1.4,0.26,1.94,0.79c0.54,0.53,0.81,1.16,0.81,1.9c0,0.74-0.27,1.38-0.81,1.9
			c-0.54,0.53-1.19,0.79-1.94,0.79c-0.76,0-1.4-0.26-1.94-0.79c-0.54-0.53-0.81-1.16-0.81-1.9c0-0.74,0.27-1.37,0.81-1.9
			C950.77,678.5,951.42,678.23,952.18,678.23z"/>
		<path class="st4" d="M998.31,710.02v-14.88c0-3.25-0.55-5.48-1.66-6.69c-1.1-1.21-3.1-1.82-5.98-1.82v-0.48h15.17v0.48
			c-2.53,0-4.29,0.61-5.29,1.82c-1,1.21-1.5,3.44-1.5,6.69v25.68h-1.28l-21.21-28.21l-0.58-0.69c-0.11,0-0.16,0.32-0.16,0.96v17.45
			c0,3.92,0.53,6.53,1.59,7.82s3.05,1.93,5.95,1.93v0.53H967.8v-0.53c2.78,0,4.68-0.57,5.72-1.71c1.03-1.14,1.55-3.39,1.55-6.75
			v-18.22c0-2-0.53-3.57-1.6-4.72c-1.28-1.36-3.17-2.04-5.66-2.04v-0.48h11.06l18.44,24.04c0.46,0.61,0.74,0.91,0.85,0.91
			S998.31,710.73,998.31,710.02z"/>
		<path class="st4" d="M1035.97,710.02v-14.88c0-3.25-0.55-5.48-1.66-6.69c-1.1-1.21-3.1-1.82-5.98-1.82v-0.48h15.17v0.48
			c-2.53,0-4.29,0.61-5.29,1.82c-1,1.21-1.5,3.44-1.5,6.69v25.68h-1.28l-21.21-28.21l-0.58-0.69c-0.11,0-0.16,0.32-0.16,0.96v17.45
			c0,3.92,0.53,6.53,1.59,7.82s3.05,1.93,5.95,1.93v0.53h-15.56v-0.53c2.78,0,4.68-0.57,5.72-1.71c1.03-1.14,1.55-3.39,1.55-6.75
			v-18.22c0-2-0.53-3.57-1.6-4.72c-1.28-1.36-3.17-2.04-5.66-2.04v-0.48h11.06l18.44,24.04c0.46,0.61,0.74,0.91,0.85,0.91
			C1035.92,711.09,1035.97,710.73,1035.97,710.02z"/>
		<path class="st4" d="M1056.97,689.51v27.55c0,1.04,0.07,1.7,0.21,1.98c0.07,0.14,0.28,0.29,0.64,0.43
			c1.03,0.39,3.15,0.59,6.36,0.59v0.53h-21.05v-0.53c1.53,0,2.86-0.05,3.98-0.16c1.12-0.11,1.89-0.24,2.3-0.4
			c0.41-0.16,0.68-0.36,0.8-0.59s0.19-0.85,0.19-1.85v-27.55c0-1-0.07-1.63-0.21-1.88c-0.07-0.14-0.3-0.29-0.7-0.43
			c-1.03-0.39-3.15-0.59-6.36-0.59v-0.48h21.1v0.48c-1.53,0-2.86,0.05-3.98,0.16c-1.12,0.11-1.91,0.25-2.38,0.43l-0.53,0.22
			C1057.09,687.64,1056.97,688.33,1056.97,689.51z"/>
		<path class="st4" d="M1084.47,688.76c2.07-1.82,3.23-2.83,3.48-3.04v11.65l-0.43-0.16c-0.5-3.12-1.8-5.73-3.9-7.84
			c-2.1-2.11-4.49-3.16-7.16-3.16c-1.85,0-3.46,0.43-4.81,1.28c-1.67,1.03-2.51,2.54-2.51,4.53c0,1.92,0.91,3.49,2.72,4.69
			c1.53,1.03,3.98,1.94,7.36,2.72c4.37,1.07,7.23,2.08,8.58,3.04c2.2,1.6,3.3,4.27,3.3,8c0,3.52-1.14,6.24-3.42,8.16
			c-1.92,1.64-4.26,2.45-7,2.45c-2.1,0-3.98-0.34-5.64-1.02s-3.09-1.8-4.3-3.37c-2.14,2.81-3.26,4.27-3.37,4.38v-14.75l0.43-0.05
			c0.68,3.06,1.44,5.52,2.3,7.37c0.71,1.57,1.55,2.87,2.51,3.9c1.89,2.03,4.63,3.05,8.23,3.05c1.67,0,3.21-0.55,4.59-1.65
			c1.6-1.28,2.4-2.88,2.4-4.8c0-2.35-1.08-4.2-3.25-5.55c-1.49-0.92-4.09-1.89-7.81-2.91c-3.71-1.01-6.3-2.05-7.75-3.12
			c-2.13-1.61-3.2-3.94-3.2-7.01c0-2.75,0.97-5.07,2.92-6.98c1.95-1.91,4.26-2.86,6.94-2.86c2.28,0,4.16,0.34,5.62,1.01
			C1081.78,686.94,1082.83,687.62,1084.47,688.76z"/>
		<path class="st4" d="M1108.31,705.69l12.23-12.2c1.68-1.68,2.52-3.08,2.52-4.19c0-0.89-0.5-1.57-1.5-2.01
			c-1-0.45-2.46-0.67-4.38-0.67v-0.48h15.01v0.48c-1.71,0-3.33,0.48-4.86,1.45c-0.96,0.61-3.14,2.69-6.55,6.23l-3.51,3.6
			l10.17,19.22c0.75,1.39,1.43,2.24,2.06,2.54c0.62,0.3,2.23,0.46,4.83,0.46v0.48h-18.54v-0.48c2.21,0,3.66-0.05,4.35-0.16
			c0.69-0.11,1.04-0.37,1.04-0.8c0-0.14-0.02-0.27-0.05-0.38l-0.48-0.96l-7.89-15.35l-4.45,4.29v10.3c0,1.04,0.07,1.7,0.21,1.98
			c0.07,0.14,0.31,0.3,0.72,0.46c0.41,0.16,1.15,0.3,2.22,0.4c1.07,0.11,2.26,0.16,3.58,0.16v0.53h-20.57v-0.53
			c1.46,0,2.76-0.07,3.9-0.21c1.14-0.14,1.88-0.28,2.22-0.4c0.34-0.12,0.6-0.22,0.77-0.29c0.25-0.21,0.37-0.91,0.37-2.09v-27.55
			c0-1-0.07-1.63-0.21-1.88c-0.07-0.14-0.3-0.29-0.7-0.43c-1.03-0.39-3.15-0.59-6.36-0.59v-0.48h21.05v0.48
			c-3.17,0-5.27,0.2-6.3,0.59l-0.53,0.21c-0.25,0.22-0.37,0.91-0.37,2.1V705.69z"/>
		<path class="st4" d="M1154.91,708.58h-10.29l-1.65,4.72c-0.43,1.18-0.64,2.2-0.64,3.06c0,1.32,0.5,2.27,1.5,2.85
			c1,0.57,2.4,0.86,4.22,0.86v0.53h-13.57v-0.53c2.46,0,4.36-0.93,5.72-2.78c0.75-1.03,1.71-3.17,2.88-6.42l9.03-25.15h1.07
			l11.54,31.35c0.53,1.46,1.07,2.33,1.6,2.6c0.53,0.27,2.14,0.4,4.81,0.4v0.53h-19.71v-0.53c2.67,0,4.51-0.1,5.5-0.29
			c1-0.2,1.5-0.6,1.5-1.21l-0.11-0.54L1154.91,708.58z M1154.65,707.99l-4.88-13.6l-4.88,13.6H1154.65z"/>
		<path class="st4" d="M1202.28,710.02v-14.88c0-3.25-0.55-5.48-1.66-6.69c-1.1-1.21-3.1-1.82-5.98-1.82v-0.48h15.17v0.48
			c-2.53,0-4.29,0.61-5.29,1.82c-1,1.21-1.5,3.44-1.5,6.69v25.68h-1.28l-21.21-28.21l-0.58-0.69c-0.11,0-0.16,0.32-0.16,0.96v17.45
			c0,3.92,0.53,6.53,1.59,7.82c1.06,1.28,3.05,1.93,5.95,1.93v0.53h-15.56v-0.53c2.78,0,4.68-0.57,5.72-1.71
			c1.03-1.14,1.55-3.39,1.55-6.75v-18.22c0-2-0.53-3.57-1.6-4.72c-1.28-1.36-3.17-2.04-5.66-2.04v-0.48h11.06l18.44,24.04
			c0.46,0.61,0.74,0.91,0.85,0.91C1202.22,711.09,1202.28,710.73,1202.28,710.02z"/>
		<path class="st4" d="M1228.07,688.76c2.07-1.82,3.23-2.83,3.48-3.04v11.65l-0.43-0.16c-0.5-3.12-1.8-5.73-3.9-7.84
			c-2.1-2.11-4.49-3.16-7.16-3.16c-1.85,0-3.46,0.43-4.81,1.28c-1.67,1.03-2.51,2.54-2.51,4.53c0,1.92,0.91,3.49,2.72,4.69
			c1.53,1.03,3.98,1.94,7.36,2.72c4.37,1.07,7.23,2.08,8.58,3.04c2.2,1.6,3.3,4.27,3.3,8c0,3.52-1.14,6.24-3.42,8.16
			c-1.92,1.64-4.26,2.45-7,2.45c-2.1,0-3.98-0.34-5.64-1.02s-3.09-1.8-4.3-3.37c-2.14,2.81-3.26,4.27-3.37,4.38v-14.75l0.43-0.05
			c0.68,3.06,1.44,5.52,2.3,7.37c0.71,1.57,1.55,2.87,2.51,3.9c1.89,2.03,4.63,3.05,8.23,3.05c1.67,0,3.21-0.55,4.59-1.65
			c1.6-1.28,2.4-2.88,2.4-4.8c0-2.35-1.08-4.2-3.25-5.55c-1.49-0.92-4.09-1.89-7.81-2.91c-3.71-1.01-6.3-2.05-7.75-3.12
			c-2.13-1.61-3.2-3.94-3.2-7.01c0-2.75,0.97-5.07,2.92-6.98c1.95-1.91,4.26-2.86,6.94-2.86c2.28,0,4.16,0.34,5.62,1.01
			C1225.38,686.94,1226.43,687.62,1228.07,688.76z"/>
		<path class="st4" d="M1276.64,720.6h-24.9v-0.53c3.74,0,5.98-0.14,6.73-0.43c0.36-0.14,0.61-0.35,0.75-0.62
			c0.14-0.27,0.21-0.92,0.21-1.96v-27.49c0-1-0.07-1.64-0.21-1.93c-0.07-0.14-0.3-0.29-0.7-0.43c-1.03-0.39-3.29-0.59-6.79-0.59
			v-0.48h21.85c3.85,0,6.91,1.03,9.19,3.1c1.82,1.64,2.73,3.33,2.73,5.07c0,2.14-0.55,3.74-1.65,4.81c-1.46,1.46-4.21,2.49-8.25,3.1
			c4.26,0.53,7.39,1.76,9.38,3.69c1.63,1.57,2.45,3.58,2.45,6.04c0,2-0.93,3.87-2.78,5.61
			C1282.52,719.58,1279.85,720.6,1276.64,720.6z M1266.01,702.01h4.95c2.59,0,4.5-0.48,5.75-1.45c1.49-1.15,2.23-3.07,2.23-5.76
			c0-3.01-0.6-5.13-1.81-6.35c-1.21-1.22-3.25-1.83-6.12-1.83h-2.55c-0.75,0-1.29,0.05-1.65,0.16c-0.35,0.11-0.58,0.34-0.67,0.7
			c-0.09,0.36-0.13,1.06-0.13,2.1V702.01z M1272.34,702.48h-6.33v14.58c0,1.07,0.06,1.75,0.19,2.04c0.12,0.29,0.39,0.51,0.8,0.67
			c0.41,0.16,0.95,0.26,1.61,0.29c0.66,0.04,2.21,0.05,4.64,0.05c2.54,0,4.43-0.77,5.68-2.3c1.14-1.39,1.72-3.34,1.72-5.84
			c0-2.97-0.66-5.25-1.98-6.86C1277.23,703.36,1275.13,702.48,1272.34,702.48z"/>
		<path class="st4" d="M1310.8,708.58h-10.29l-1.65,4.72c-0.43,1.18-0.64,2.2-0.64,3.06c0,1.32,0.5,2.27,1.5,2.85
			c1,0.57,2.4,0.86,4.22,0.86v0.53h-13.57v-0.53c2.46,0,4.36-0.93,5.72-2.78c0.75-1.03,1.71-3.17,2.88-6.42l9.03-25.15h1.07
			l11.54,31.35c0.53,1.46,1.07,2.33,1.6,2.6c0.53,0.27,2.14,0.4,4.81,0.4v0.53h-19.71v-0.53c2.67,0,4.51-0.1,5.5-0.29
			c1-0.2,1.5-0.6,1.5-1.21l-0.11-0.54L1310.8,708.58z M1302.63,678.23c0.75,0,1.4,0.26,1.94,0.79c0.54,0.53,0.81,1.16,0.81,1.9
			c0,0.74-0.27,1.38-0.81,1.9c-0.54,0.53-1.19,0.79-1.94,0.79c-0.76,0-1.4-0.26-1.94-0.79c-0.54-0.53-0.81-1.16-0.81-1.9
			c0-0.74,0.27-1.37,0.81-1.9C1301.23,678.5,1301.88,678.23,1302.63,678.23z M1310.54,707.99l-4.88-13.6l-4.88,13.6H1310.54z
			 M1312.03,678.23c0.76,0,1.4,0.26,1.94,0.79c0.54,0.53,0.81,1.16,0.81,1.9c0,0.74-0.27,1.38-0.81,1.9
			c-0.54,0.53-1.19,0.79-1.94,0.79c-0.76,0-1.4-0.26-1.94-0.79c-0.54-0.53-0.81-1.16-0.81-1.9c0-0.74,0.27-1.37,0.81-1.9
			C1310.63,678.5,1311.28,678.23,1312.03,678.23z"/>
		<path class="st4" d="M1346.3,688.76c2.07-1.82,3.23-2.83,3.48-3.04v11.65l-0.43-0.16c-0.5-3.12-1.8-5.73-3.9-7.84
			c-2.1-2.11-4.49-3.16-7.16-3.16c-1.85,0-3.45,0.43-4.81,1.28c-1.67,1.03-2.51,2.54-2.51,4.53c0,1.92,0.91,3.49,2.72,4.69
			c1.53,1.03,3.98,1.94,7.36,2.72c4.37,1.07,7.23,2.08,8.58,3.04c2.2,1.6,3.3,4.27,3.3,8c0,3.52-1.14,6.24-3.42,8.16
			c-1.92,1.64-4.26,2.45-7,2.45c-2.1,0-3.98-0.34-5.64-1.02s-3.09-1.8-4.3-3.37c-2.14,2.81-3.26,4.27-3.37,4.38v-14.75l0.43-0.05
			c0.68,3.06,1.44,5.52,2.3,7.37c0.71,1.57,1.55,2.87,2.51,3.9c1.89,2.03,4.63,3.05,8.23,3.05c1.67,0,3.21-0.55,4.59-1.65
			c1.6-1.28,2.4-2.88,2.4-4.8c0-2.35-1.08-4.2-3.25-5.55c-1.49-0.92-4.09-1.89-7.81-2.91c-3.71-1.01-6.3-2.05-7.75-3.12
			c-2.13-1.61-3.2-3.94-3.2-7.01c0-2.75,0.97-5.07,2.92-6.98c1.95-1.91,4.26-2.86,6.94-2.86c2.28,0,4.16,0.34,5.62,1.01
			C1343.6,686.94,1344.66,687.62,1346.3,688.76z"/>
		<path class="st4" d="M1387.92,686.14v15.23h-0.75c-0.82-5.83-2.12-9.83-3.9-12.01c-1.46-1.82-3.62-2.74-6.46-2.74
			c-0.71,0-1.1,0.04-1.18,0.11c-0.14,0.11-0.21,0.57-0.21,1.39v28.94c0,1.04,0.07,1.7,0.21,1.98c0.07,0.14,0.32,0.3,0.75,0.46
			c0.43,0.16,1.25,0.3,2.46,0.4c1.21,0.11,2.85,0.16,4.92,0.16v0.53h-23.24v-0.53c2.03,0,3.65-0.05,4.86-0.16
			c1.21-0.11,2.03-0.24,2.46-0.4c0.43-0.16,0.7-0.36,0.83-0.59c0.12-0.23,0.19-0.85,0.19-1.85v-28.89c0-0.93-0.11-1.43-0.32-1.5
			c-0.11-0.03-0.48-0.05-1.12-0.05c-2.78,0-4.9,0.9-6.36,2.68c-1.78,2.22-3.12,6.2-4.01,11.96h-0.75v-15.12H1387.92z"/>
		<path class="st4" d="M1409.9,708.58h-10.29l-1.65,4.72c-0.43,1.18-0.64,2.2-0.64,3.06c0,1.32,0.5,2.27,1.5,2.85
			c1,0.57,2.4,0.86,4.22,0.86v0.53h-13.57v-0.53c2.46,0,4.36-0.93,5.72-2.78c0.75-1.03,1.71-3.17,2.88-6.42l9.03-25.15h1.07
			l11.54,31.35c0.53,1.46,1.07,2.33,1.6,2.6c0.53,0.27,2.14,0.4,4.81,0.4v0.53h-19.71v-0.53c2.67,0,4.51-0.1,5.5-0.29
			c1-0.2,1.5-0.6,1.5-1.21l-0.11-0.54L1409.9,708.58z M1409.64,707.99l-4.88-13.6l-4.88,13.6H1409.64z"/>
		<path class="st4" d="M1458.01,721.08l-11.38-31.46c-0.5-1.43-1.05-2.28-1.66-2.57c-0.61-0.29-2.28-0.43-5.02-0.43v-0.48h19.45
			v0.48c-2.46,0-4.14,0.12-5.05,0.35c-0.91,0.23-1.36,0.71-1.36,1.42c0,0.29,0.09,0.7,0.27,1.23l8.39,22.59l5.67-16.86
			c0.6-1.89,0.9-3.39,0.9-4.5c0-2.82-1.83-4.23-5.5-4.23v-0.48h13.84v0.48c-3.06,0-5.29,1.39-6.68,4.17
			c-0.43,0.89-1.06,2.55-1.91,4.98l-8.45,25.31H1458.01z"/>
		<path class="st4" d="M1497.67,708.58h-10.29l-1.65,4.72c-0.43,1.18-0.64,2.2-0.64,3.06c0,1.32,0.5,2.27,1.5,2.85
			c1,0.57,2.4,0.86,4.22,0.86v0.53h-13.57v-0.53c2.46,0,4.36-0.93,5.72-2.78c0.75-1.03,1.71-3.17,2.88-6.42l9.03-25.15h1.07
			l11.54,31.35c0.53,1.46,1.07,2.33,1.6,2.6c0.53,0.27,2.14,0.4,4.81,0.4v0.53h-19.71v-0.53c2.67,0,4.51-0.1,5.5-0.29
			c1-0.2,1.5-0.6,1.5-1.21l-0.11-0.54L1497.67,708.58z M1489.5,678.23c0.75,0,1.4,0.26,1.94,0.79c0.54,0.53,0.81,1.16,0.81,1.9
			c0,0.74-0.27,1.38-0.81,1.9c-0.54,0.53-1.19,0.79-1.94,0.79c-0.76,0-1.4-0.26-1.94-0.79c-0.54-0.53-0.81-1.16-0.81-1.9
			c0-0.74,0.27-1.37,0.81-1.9C1488.1,678.5,1488.75,678.23,1489.5,678.23z M1497.41,707.99l-4.88-13.6l-4.88,13.6H1497.41z
			 M1498.91,678.23c0.76,0,1.4,0.26,1.94,0.79c0.54,0.53,0.81,1.16,0.81,1.9c0,0.74-0.27,1.38-0.81,1.9
			c-0.54,0.53-1.19,0.79-1.94,0.79s-1.4-0.26-1.94-0.79c-0.54-0.53-0.81-1.16-0.81-1.9c0-0.74,0.27-1.37,0.81-1.9
			C1497.5,678.5,1498.15,678.23,1498.91,678.23z"/>
		<path class="st4" d="M1545.04,710.02v-14.88c0-3.25-0.55-5.48-1.66-6.69c-1.1-1.21-3.1-1.82-5.98-1.82v-0.48h15.17v0.48
			c-2.53,0-4.29,0.61-5.29,1.82c-1,1.21-1.5,3.44-1.5,6.69v25.68h-1.28l-21.21-28.21l-0.58-0.69c-0.11,0-0.16,0.32-0.16,0.96v17.45
			c0,3.92,0.53,6.53,1.59,7.82c1.06,1.28,3.05,1.93,5.95,1.93v0.53h-15.56v-0.53c2.78,0,4.68-0.57,5.72-1.71
			c1.03-1.14,1.55-3.39,1.55-6.75v-18.22c0-2-0.53-3.57-1.6-4.72c-1.28-1.36-3.17-2.04-5.66-2.04v-0.48h11.06l18.44,24.04
			c0.46,0.61,0.74,0.91,0.85,0.91C1544.99,711.09,1545.04,710.73,1545.04,710.02z"/>
	</g>
	<line class="st5" x1="354.16" y1="644.2" x2="1567.4" y2="645.16"/>
</g>
</svg>
